<?xml version="1.0" encoding="utf-8"?>
<svg xmlns="http://www.w3.org/2000/svg" style="margin: auto; background: none; display: block; shape-rendering: auto;" width="280" height="52" preserveAspectRatio="xMidYMid">
<style type="text/css">
  text {
    text-anchor: middle; font-size: 36px; opacity: 0;
  }
</style>
<g style="transform-origin: 140px 26px; transform: scale(1.2);">
<g transform="translate(140,26)">
  <g transform="translate(0,0)"><g class="path" style="transform: scale(0.91); transform-origin: -90.73px -2.64303px; animation: 1.78571s linear -1.10491s infinite normal forwards running breath-b401dda0-5f12-4408-aa6d-8dc90293239b;"><path d="M11.67 0L10.28-4.89L3.63-4.89L2.26 0L0.29 0L6.45-21.01L7.44-21.01L13.62 0L11.67 0zM6.90-16.38L4.15-6.69L9.79-6.69L7.02-16.38L6.96-17.15L6.90-16.38" fill="#ffffff" stroke="none" stroke-width="none" transform="translate(-97.68502807617188,7.8619675445556645)" style="fill: rgb(255, 255, 255);"></path></g><g class="path" style="transform: scale(0.91); transform-origin: -76.81px 3.22197px; animation: 1.78571s linear -1.03125s infinite normal forwards running breath-b401dda0-5f12-4408-aa6d-8dc90293239b;"><path d="M25.88 1.89L25.88 1.89L25.88 1.89Q25.88 2.80 25.54 3.56L25.54 3.56L25.54 3.56Q25.20 4.32 24.59 4.86L24.59 4.86L24.59 4.86Q23.99 5.41 23.19 5.71L23.19 5.71L23.19 5.71Q22.38 6.01 21.47 6.01L21.47 6.01L20.73 6.01L20.73 6.01Q19.82 6.01 19.01 5.71L19.01 5.71L19.01 5.71Q18.21 5.41 17.61 4.86L17.61 4.86L17.61 4.86Q17.01 4.32 16.66 3.56L16.66 3.56L16.66 3.56Q16.32 2.80 16.32 1.89L16.32 1.89L16.32 1.83L16.32 1.83Q16.32 0.95 16.64 0.22L16.64 0.22L16.64 0.22Q16.96-0.51 17.52-1.05L17.52-1.05L17.52-1.05Q16.82-1.48 16.40-2.20L16.40-2.20L16.40-2.20Q15.98-2.93 15.98-3.81L15.98-3.81L15.98-3.81Q15.98-4.60 16.32-5.28L16.32-5.28L16.32-5.28Q16.66-5.96 17.24-6.39L17.24-6.39L17.24-6.39Q16.54-7.00 16.13-7.87L16.13-7.87L16.13-7.87Q15.72-8.73 15.72-9.76L15.72-9.76L15.72-10.88L15.72-10.88Q15.72-11.79 16.06-12.60L16.06-12.60L16.06-12.60Q16.41-13.40 17.01-14.00L17.01-14.00L17.01-14.00Q17.61-14.60 18.41-14.95L18.41-14.95L18.41-14.95Q19.22-15.29 20.13-15.29L20.13-15.29L20.87-15.29L20.87-15.29Q21.97-15.29 22.90-14.80L22.90-14.80L22.90-14.80Q23.83-14.31 24.45-13.48L24.45-13.48L25.43-15L26.03-15L26.03-9.76L26.03-9.76Q26.03-8.85 25.69-8.04L25.69-8.04L25.69-8.04Q25.34-7.24 24.74-6.64L24.74-6.64L24.74-6.64Q24.14-6.04 23.33-5.69L23.33-5.69L23.33-5.69Q22.53-5.35 21.62-5.35L21.62-5.35L19.01-5.35L19.01-5.35Q18.71-5.35 18.43-5.22L18.43-5.22L18.43-5.22Q18.15-5.10 17.94-4.89L17.94-4.89L17.94-4.89Q17.72-4.69 17.61-4.40L17.61-4.40L17.61-4.40Q17.49-4.12 17.49-3.81L17.49-3.81L17.49-3.81Q17.49-3.50 17.61-3.22L17.61-3.22L17.61-3.22Q17.72-2.94 17.94-2.73L17.94-2.73L17.94-2.73Q18.15-2.52 18.43-2.40L18.43-2.40L18.43-2.40Q18.71-2.29 19.01-2.29L19.01-2.29L21.47-2.29L21.47-2.29Q22.38-2.29 23.19-1.98L23.19-1.98L23.19-1.98Q23.99-1.68 24.59-1.14L24.59-1.14L24.59-1.14Q25.20-0.60 25.54 0.16L25.54 0.16L25.54 0.16Q25.88 0.92 25.88 1.83L25.88 1.83L25.88 1.89zM24.24-9.65L24.24-10.99L24.24-10.99Q24.24-11.53 24.04-12.00L24.04-12.00L24.04-12.00Q23.83-12.48 23.47-12.83L23.47-12.83L23.47-12.83Q23.12-13.18 22.64-13.39L22.64-13.39L22.64-13.39Q22.16-13.59 21.62-13.59L21.62-13.59L20.13-13.59L20.13-13.59Q19.58-13.59 19.11-13.39L19.11-13.39L19.11-13.39Q18.63-13.18 18.28-12.83L18.28-12.83L18.28-12.83Q17.93-12.48 17.72-12.00L17.72-12.00L17.72-12.00Q17.52-11.53 17.52-10.99L17.52-10.99L17.52-9.65L17.52-9.65Q17.52-9.11 17.72-8.64L17.72-8.64L17.72-8.64Q17.93-8.16 18.28-7.81L18.28-7.81L18.28-7.81Q18.63-7.46 19.11-7.25L19.11-7.25L19.11-7.25Q19.58-7.05 20.13-7.05L20.13-7.05L21.62-7.05L21.62-7.05Q22.16-7.05 22.64-7.25L22.64-7.25L22.64-7.25Q23.12-7.46 23.47-7.81L23.47-7.81L23.47-7.81Q23.83-8.16 24.04-8.64L24.04-8.64L24.04-8.64Q24.24-9.11 24.24-9.65L24.24-9.65zM24.17 1.98L24.17 1.74L24.17 1.74Q24.17 1.20 23.96 0.77L23.96 0.77L23.96 0.77Q23.76 0.34 23.41 0.04L23.41 0.04L23.41 0.04Q23.06-0.25 22.58-0.41L22.58-0.41L22.58-0.41Q22.10-0.57 21.56-0.57L21.56-0.57L20.64-0.57L20.64-0.57Q20.10-0.57 19.62-0.41L19.62-0.41L19.62-0.41Q19.15-0.25 18.79 0.04L18.79 0.04L18.79 0.04Q18.44 0.34 18.24 0.77L18.24 0.77L18.24 0.77Q18.03 1.20 18.03 1.74L18.03 1.74L18.03 1.98L18.03 1.98Q18.03 2.52 18.24 2.94L18.24 2.94L18.24 2.94Q18.44 3.37 18.79 3.67L18.79 3.67L18.79 3.67Q19.15 3.97 19.62 4.13L19.62 4.13L19.62 4.13Q20.10 4.29 20.64 4.29L20.64 4.29L21.56 4.29L21.56 4.29Q22.10 4.29 22.58 4.13L22.58 4.13L22.58 4.13Q23.06 3.97 23.41 3.67L23.41 3.67L23.41 3.67Q23.76 3.37 23.96 2.94L23.96 2.94L23.96 2.94Q24.17 2.52 24.17 1.98L24.17 1.98" fill="#ffffff" stroke="none" stroke-width="none" transform="translate(-97.68502807617188,7.8619675445556645)" style="fill: rgb(248, 248, 248);"></path></g><g class="path" style="transform: scale(0.91); transform-origin: -63.335px 0.361968px; animation: 1.78571s linear -0.957589s infinite normal forwards running breath-b401dda0-5f12-4408-aa6d-8dc90293239b;"><path d="M39.36-4.12L39.36-4.12L39.36-4.12Q39.36-3.21 39.02-2.40L39.02-2.40L39.02-2.40Q38.67-1.60 38.07-1.00L38.07-1.00L38.07-1.00Q37.47-0.40 36.67-0.05L36.67-0.05L36.67-0.05Q35.86 0.29 34.95 0.29L34.95 0.29L33.75 0.29L33.75 0.29Q32.84 0.29 32.04-0.05L32.04-0.05L32.04-0.05Q31.23-0.40 30.63-1.00L30.63-1.00L30.63-1.00Q30.03-1.60 29.69-2.40L29.69-2.40L29.69-2.40Q29.34-3.21 29.34-4.12L29.34-4.12L29.34-10.88L29.34-10.88Q29.34-11.79 29.69-12.60L29.69-12.60L29.69-12.60Q30.03-13.40 30.63-14.00L30.63-14.00L30.63-14.00Q31.23-14.60 32.04-14.95L32.04-14.95L32.04-14.95Q32.84-15.29 33.75-15.29L33.75-15.29L34.95-15.29L34.95-15.29Q35.86-15.29 36.67-14.95L36.67-14.95L36.67-14.95Q37.47-14.60 38.07-14.00L38.07-14.00L38.07-14.00Q38.67-13.40 39.02-12.60L39.02-12.60L39.02-12.60Q39.36-11.79 39.36-10.88L39.36-10.88L39.36-4.12zM37.56-4.01L37.56-10.99L37.56-10.99Q37.56-11.53 37.35-12.00L37.35-12.00L37.35-12.00Q37.15-12.48 36.80-12.83L36.80-12.83L36.80-12.83Q36.45-13.18 35.97-13.39L35.97-13.39L35.97-13.39Q35.49-13.59 34.95-13.59L34.95-13.59L33.75-13.59L33.75-13.59Q33.21-13.59 32.73-13.39L32.73-13.39L32.73-13.39Q32.26-13.18 31.90-12.83L31.90-12.83L31.90-12.83Q31.55-12.48 31.35-12.00L31.35-12.00L31.35-12.00Q31.14-11.53 31.14-10.99L31.14-10.99L31.14-4.01L31.14-4.01Q31.14-3.47 31.35-3.00L31.35-3.00L31.35-3.00Q31.55-2.52 31.90-2.17L31.90-2.17L31.90-2.17Q32.26-1.82 32.73-1.61L32.73-1.61L32.73-1.61Q33.21-1.41 33.75-1.41L33.75-1.41L34.95-1.41L34.95-1.41Q35.49-1.41 35.97-1.61L35.97-1.61L35.97-1.61Q36.45-1.82 36.80-2.17L36.80-2.17L36.80-2.17Q37.15-2.52 37.35-3.00L37.35-3.00L37.35-3.00Q37.56-3.47 37.56-4.01L37.56-4.01" fill="#ffffff" stroke="none" stroke-width="none" transform="translate(-97.68502807617188,7.8619675445556645)" style="fill: rgb(240, 240, 240);"></path></g><g class="path" style="transform: scale(0.91); transform-origin: -51.62px 0.216968px; animation: 1.78571s linear -0.883929s infinite normal forwards running breath-b401dda0-5f12-4408-aa6d-8dc90293239b;"><path d="M49.17-13.29L47.37-13.29L47.37-13.29Q46.83-13.29 46.35-13.08L46.35-13.08L46.35-13.08Q45.88-12.88 45.53-12.52L45.53-12.52L45.53-12.52Q45.18-12.17 44.97-11.70L44.97-11.70L44.97-11.70Q44.77-11.22 44.77-10.68L44.77-10.68L44.77 0L42.96 0L42.96-15L43.56-15L44.55-13.48L44.55-13.48Q45.16-14.31 46.09-14.80L46.09-14.80L46.09-14.80Q47.02-15.29 48.12-15.29L48.12-15.29L49.17-15.29L49.17-13.29" fill="#ffffff" stroke="none" stroke-width="none" transform="translate(-97.68502807617188,7.8619675445556645)" style="fill: rgb(235, 235, 235);"></path></g><g class="path" style="transform: scale(0.91); transform-origin: -41.095px 0.361968px; animation: 1.78571s linear -0.810268s infinite normal forwards running breath-b401dda0-5f12-4408-aa6d-8dc90293239b;"><path d="M61.60 0L61.00 0L60-1.49L60-1.49Q59.38-0.69 58.46-0.20L58.46-0.20L58.46-0.20Q57.54 0.29 56.44 0.29L56.44 0.29L55.99 0.29L55.99 0.29Q55.08 0.29 54.27-0.05L54.27-0.05L54.27-0.05Q53.47-0.40 52.87-1.00L52.87-1.00L52.87-1.00Q52.27-1.60 51.92-2.40L51.92-2.40L51.92-2.40Q51.58-3.21 51.58-4.12L51.58-4.12L51.58-4.26L51.58-4.26Q51.58-5.17 51.92-5.98L51.92-5.98L51.92-5.98Q52.27-6.78 52.87-7.38L52.87-7.38L52.87-7.38Q53.47-7.98 54.27-8.33L54.27-8.33L54.27-8.33Q55.08-8.67 55.99-8.67L55.99-8.67L59.79-8.67L59.79-10.99L59.79-10.99Q59.79-11.53 59.59-12.00L59.59-12.00L59.59-12.00Q59.38-12.48 59.03-12.83L59.03-12.83L59.03-12.83Q58.68-13.18 58.21-13.39L58.21-13.39L58.21-13.39Q57.73-13.59 57.19-13.59L57.19-13.59L56.13-13.59L56.13-13.59Q55.59-13.59 55.11-13.39L55.11-13.39L55.11-13.39Q54.64-13.18 54.29-12.83L54.29-12.83L54.29-12.83Q53.94-12.48 53.73-12.00L53.73-12.00L53.73-12.00Q53.53-11.53 53.53-10.99L53.53-10.99L53.53-10.44L51.72-10.74L51.72-10.88L51.72-10.88Q51.72-11.79 52.07-12.60L52.07-12.60L52.07-12.60Q52.41-13.40 53.01-14.00L53.01-14.00L53.01-14.00Q53.61-14.60 54.42-14.95L54.42-14.95L54.42-14.95Q55.22-15.29 56.13-15.29L56.13-15.29L57.19-15.29L57.19-15.29Q58.10-15.29 58.90-14.95L58.90-14.95L58.90-14.95Q59.71-14.60 60.31-14.00L60.31-14.00L60.31-14.00Q60.91-13.40 61.25-12.60L61.25-12.60L61.25-12.60Q61.60-11.79 61.60-10.88L61.60-10.88L61.60 0zM59.79-4.01L59.79-7.27L55.99-7.27L55.99-7.27Q55.44-7.27 54.97-7.06L54.97-7.06L54.97-7.06Q54.49-6.86 54.14-6.50L54.14-6.50L54.14-6.50Q53.79-6.14 53.58-5.66L53.58-5.66L53.58-5.66Q53.38-5.19 53.38-4.64L53.38-4.64L53.38-4.01L53.38-4.01Q53.38-3.47 53.58-3.00L53.58-3.00L53.58-3.00Q53.79-2.52 54.14-2.17L54.14-2.17L54.14-2.17Q54.49-1.82 54.97-1.61L54.97-1.61L54.97-1.61Q55.44-1.41 55.99-1.41L55.99-1.41L57.19-1.41L57.19-1.41Q57.73-1.41 58.21-1.61L58.21-1.61L58.21-1.61Q58.68-1.82 59.03-2.17L59.03-2.17L59.03-2.17Q59.38-2.52 59.59-3.00L59.59-3.00L59.59-3.00Q59.79-3.47 59.79-4.01L59.79-4.01" fill="#ffffff" stroke="none" stroke-width="none" transform="translate(-97.68502807617188,7.8619675445556645)" style="fill: rgb(231, 231, 231);"></path></g><g class="path" style="transform: scale(0.91); transform-origin: -31.065px 6.73197px; animation: 1.78571s linear -0.736607s infinite normal forwards running breath-b401dda0-5f12-4408-aa6d-8dc90293239b;"><path d="M67.75 0L65.49 0L65.49-2.26L67.75-2.26L67.75 0" fill="#ffffff" stroke="none" stroke-width="none" transform="translate(-97.68502807617188,7.8619675445556645)" style="fill: rgb(255, 255, 255);"></path></g><g class="path" style="transform: scale(0.91); transform-origin: -21.025px 0.361968px; animation: 1.78571s linear -0.662946s infinite normal forwards running breath-b401dda0-5f12-4408-aa6d-8dc90293239b;"><path d="M81.67-4.12L81.67-4.12L81.67-4.12Q81.67-3.21 81.32-2.40L81.32-2.40L81.32-2.40Q80.98-1.60 80.38-1.00L80.38-1.00L80.38-1.00Q79.78-0.40 78.97-0.05L78.97-0.05L78.97-0.05Q78.16 0.29 77.26 0.29L77.26 0.29L76.05 0.29L76.05 0.29Q75.15 0.29 74.34-0.05L74.34-0.05L74.34-0.05Q73.54-0.40 72.93-1.00L72.93-1.00L72.93-1.00Q72.33-1.60 71.99-2.40L71.99-2.40L71.99-2.40Q71.65-3.21 71.65-4.12L71.65-4.12L71.65-10.88L71.65-10.88Q71.65-11.79 71.99-12.60L71.99-12.60L71.99-12.60Q72.33-13.40 72.93-14.00L72.93-14.00L72.93-14.00Q73.54-14.60 74.34-14.95L74.34-14.95L74.34-14.95Q75.15-15.29 76.05-15.29L76.05-15.29L77.26-15.29L77.26-15.29Q78.16-15.29 78.97-14.95L78.97-14.95L78.97-14.95Q79.78-14.60 80.38-14.00L80.38-14.00L80.38-14.00Q80.98-13.40 81.32-12.60L81.32-12.60L81.32-12.60Q81.67-11.79 81.67-10.88L81.67-10.88L81.67-10.28L79.86-9.99L79.86-10.99L79.86-10.99Q79.86-11.53 79.66-12.00L79.66-12.00L79.66-12.00Q79.45-12.48 79.10-12.83L79.10-12.83L79.10-12.83Q78.75-13.18 78.27-13.39L78.27-13.39L78.27-13.39Q77.80-13.59 77.26-13.59L77.26-13.59L76.05-13.59L76.05-13.59Q75.51-13.59 75.04-13.39L75.04-13.39L75.04-13.39Q74.56-13.18 74.21-12.83L74.21-12.83L74.21-12.83Q73.86-12.48 73.65-12.00L73.65-12.00L73.65-12.00Q73.45-11.53 73.45-10.99L73.45-10.99L73.45-4.01L73.45-4.01Q73.45-3.47 73.65-3.00L73.65-3.00L73.65-3.00Q73.86-2.52 74.21-2.17L74.21-2.17L74.21-2.17Q74.56-1.82 75.04-1.61L75.04-1.61L75.04-1.61Q75.51-1.41 76.05-1.41L76.05-1.41L77.26-1.41L77.26-1.41Q77.80-1.41 78.27-1.61L78.27-1.61L78.27-1.61Q78.75-1.82 79.10-2.17L79.10-2.17L79.10-2.17Q79.45-2.52 79.66-3.00L79.66-3.00L79.66-3.00Q79.86-3.47 79.86-4.01L79.86-4.01L79.86-5.01L81.67-4.72L81.67-4.12" fill="#ffffff" stroke="none" stroke-width="none" transform="translate(-97.68502807617188,7.8619675445556645)" style="fill: rgb(248, 248, 248);"></path></g><g class="path" style="transform: scale(0.91); transform-origin: -7.40503px 0.361968px; animation: 1.78571s linear -0.589286s infinite normal forwards running breath-b401dda0-5f12-4408-aa6d-8dc90293239b;"><path d="M95.29-4.12L95.29-4.12L95.29-4.12Q95.29-3.21 94.94-2.40L94.94-2.40L94.94-2.40Q94.60-1.60 94.00-1.00L94.00-1.00L94.00-1.00Q93.40-0.40 92.59-0.05L92.59-0.05L92.59-0.05Q91.79 0.29 90.88 0.29L90.88 0.29L89.68 0.29L89.68 0.29Q88.77 0.29 87.96-0.05L87.96-0.05L87.96-0.05Q87.16-0.40 86.56-1.00L86.56-1.00L86.56-1.00Q85.96-1.60 85.61-2.40L85.61-2.40L85.61-2.40Q85.27-3.21 85.27-4.12L85.27-4.12L85.27-10.88L85.27-10.88Q85.27-11.79 85.61-12.60L85.61-12.60L85.61-12.60Q85.96-13.40 86.56-14.00L86.56-14.00L86.56-14.00Q87.16-14.60 87.96-14.95L87.96-14.95L87.96-14.95Q88.77-15.29 89.68-15.29L89.68-15.29L90.88-15.29L90.88-15.29Q91.79-15.29 92.59-14.95L92.59-14.95L92.59-14.95Q93.40-14.60 94.00-14.00L94.00-14.00L94.00-14.00Q94.60-13.40 94.94-12.60L94.94-12.60L94.94-12.60Q95.29-11.79 95.29-10.88L95.29-10.88L95.29-4.12zM93.49-4.01L93.49-10.99L93.49-10.99Q93.49-11.53 93.28-12.00L93.28-12.00L93.28-12.00Q93.08-12.48 92.72-12.83L92.72-12.83L92.72-12.83Q92.37-13.18 91.90-13.39L91.90-13.39L91.90-13.39Q91.42-13.59 90.88-13.59L90.88-13.59L89.68-13.59L89.68-13.59Q89.14-13.59 88.66-13.39L88.66-13.39L88.66-13.39Q88.18-13.18 87.83-12.83L87.83-12.83L87.83-12.83Q87.48-12.48 87.28-12.00L87.28-12.00L87.28-12.00Q87.07-11.53 87.07-10.99L87.07-10.99L87.07-4.01L87.07-4.01Q87.07-3.47 87.28-3.00L87.28-3.00L87.28-3.00Q87.48-2.52 87.83-2.17L87.83-2.17L87.83-2.17Q88.18-1.82 88.66-1.61L88.66-1.61L88.66-1.61Q89.14-1.41 89.68-1.41L89.68-1.41L90.88-1.41L90.88-1.41Q91.42-1.41 91.90-1.61L91.90-1.61L91.90-1.61Q92.37-1.82 92.72-2.17L92.72-2.17L92.72-2.17Q93.08-2.52 93.28-3.00L93.28-3.00L93.28-3.00Q93.49-3.47 93.49-4.01L93.49-4.01" fill="#ffffff" stroke="none" stroke-width="none" transform="translate(-97.68502807617188,7.8619675445556645)" style="fill: rgb(240, 240, 240);"></path></g><g class="path" style="transform: scale(0.91); transform-origin: 10.025px 0.216968px; animation: 1.78571s linear -0.515625s infinite normal forwards running breath-b401dda0-5f12-4408-aa6d-8dc90293239b;"><path d="M116.53 0L114.73 0L114.73-10.99L114.73-10.99Q114.73-11.53 114.52-12.00L114.52-12.00L114.52-12.00Q114.32-12.48 113.96-12.83L113.96-12.83L113.96-12.83Q113.61-13.18 113.14-13.39L113.14-13.39L113.14-13.39Q112.66-13.59 112.12-13.59L112.12-13.59L111.23-13.59L111.23-13.59Q110.68-13.59 110.21-13.39L110.21-13.39L110.21-13.39Q109.73-13.18 109.37-12.83L109.37-12.83L109.37-12.83Q109.01-12.48 108.81-12.00L108.81-12.00L108.81-12.00Q108.60-11.53 108.60-10.99L108.60-10.99L108.60 0L106.82 0L106.82-10.99L106.82-10.99Q106.82-11.53 106.61-12.00L106.61-12.00L106.61-12.00Q106.41-12.48 106.05-12.83L106.05-12.83L106.05-12.83Q105.69-13.18 105.21-13.39L105.21-13.39L105.21-13.39Q104.74-13.59 104.19-13.59L104.19-13.59L103.30-13.59L103.30-13.59Q102.76-13.59 102.28-13.39L102.28-13.39L102.28-13.39Q101.81-13.18 101.46-12.83L101.46-12.83L101.46-12.83Q101.10-12.48 100.90-12.00L100.90-12.00L100.90-12.00Q100.69-11.53 100.69-10.99L100.69-10.99L100.69 0L98.89 0L98.89-15L99.49-15L100.47-13.48L100.47-13.48Q101.09-14.31 102.02-14.80L102.02-14.80L102.02-14.80Q102.95-15.29 104.05-15.29L104.05-15.29L104.19-15.29L104.19-15.29Q105.47-15.29 106.49-14.66L106.49-14.66L106.49-14.66Q107.52-14.03 108.08-12.99L108.08-12.99L108.08-12.99Q108.35-13.51 108.76-13.93L108.76-13.93L108.76-13.93Q109.17-14.36 109.67-14.66L109.67-14.66L109.67-14.66Q110.17-14.96 110.76-15.12L110.76-15.12L110.76-15.12Q111.34-15.29 111.97-15.29L111.97-15.29L112.12-15.29L112.12-15.29Q113.03-15.29 113.83-14.95L113.83-14.95L113.83-14.95Q114.64-14.60 115.24-14.00L115.24-14.00L115.24-14.00Q115.84-13.40 116.18-12.60L116.18-12.60L116.18-12.60Q116.53-11.79 116.53-10.88L116.53-10.88L116.53 0" fill="#ffffff" stroke="none" stroke-width="none" transform="translate(-97.68502807617188,7.8619675445556645)" style="fill: rgb(235, 235, 235);"></path></g><g class="path" style="transform: scale(0.91); transform-origin: 31.265px 0.216968px; animation: 1.78571s linear -0.441964s infinite normal forwards running breath-b401dda0-5f12-4408-aa6d-8dc90293239b;"><path d="M137.77 0L135.97 0L135.97-10.99L135.97-10.99Q135.97-11.53 135.76-12.00L135.76-12.00L135.76-12.00Q135.56-12.48 135.21-12.83L135.21-12.83L135.21-12.83Q134.85-13.18 134.38-13.39L134.38-13.39L134.38-13.39Q133.90-13.59 133.36-13.59L133.36-13.59L132.47-13.59L132.47-13.59Q131.92-13.59 131.45-13.39L131.45-13.39L131.45-13.39Q130.97-13.18 130.61-12.83L130.61-12.83L130.61-12.83Q130.25-12.48 130.05-12.00L130.05-12.00L130.05-12.00Q129.84-11.53 129.84-10.99L129.84-10.99L129.84 0L128.06 0L128.06-10.99L128.06-10.99Q128.06-11.53 127.85-12.00L127.85-12.00L127.85-12.00Q127.65-12.48 127.29-12.83L127.29-12.83L127.29-12.83Q126.93-13.18 126.45-13.39L126.45-13.39L126.45-13.39Q125.98-13.59 125.43-13.59L125.43-13.59L124.54-13.59L124.54-13.59Q124.00-13.59 123.52-13.39L123.52-13.39L123.52-13.39Q123.05-13.18 122.70-12.83L122.70-12.83L122.70-12.83Q122.34-12.48 122.14-12.00L122.14-12.00L122.14-12.00Q121.93-11.53 121.93-10.99L121.93-10.99L121.93 0L120.13 0L120.13-15L120.73-15L121.71-13.48L121.71-13.48Q122.33-14.31 123.26-14.80L123.26-14.80L123.26-14.80Q124.19-15.29 125.29-15.29L125.29-15.29L125.43-15.29L125.43-15.29Q126.71-15.29 127.73-14.66L127.73-14.66L127.73-14.66Q128.76-14.03 129.32-12.99L129.32-12.99L129.32-12.99Q129.59-13.51 130.00-13.93L130.00-13.93L130.00-13.93Q130.42-14.36 130.91-14.66L130.91-14.66L130.91-14.66Q131.41-14.96 132.00-15.12L132.00-15.12L132.00-15.12Q132.58-15.29 133.21-15.29L133.21-15.29L133.36-15.29L133.36-15.29Q134.27-15.29 135.07-14.95L135.07-14.95L135.07-14.95Q135.88-14.60 136.48-14.00L136.48-14.00L136.48-14.00Q137.08-13.40 137.42-12.60L137.42-12.60L137.42-12.60Q137.77-11.79 137.77-10.88L137.77-10.88L137.77 0" fill="#ffffff" stroke="none" stroke-width="none" transform="translate(-97.68502807617188,7.8619675445556645)" style="fill: rgb(231, 231, 231);"></path></g><g class="path" style="transform: scale(0.91); transform-origin: 48.695px 0.506968px; animation: 1.78571s linear -0.368304s infinite normal forwards running breath-b401dda0-5f12-4408-aa6d-8dc90293239b;"><path d="M151.39 0L150.79 0L149.79-1.52L149.79-1.52Q149.18-0.69 148.26-0.20L148.26-0.20L148.26-0.20Q147.33 0.29 146.24 0.29L146.24 0.29L145.78 0.29L145.78 0.29Q144.87 0.29 144.07-0.05L144.07-0.05L144.07-0.05Q143.26-0.40 142.66-1.00L142.66-1.00L142.66-1.00Q142.06-1.60 141.72-2.40L141.72-2.40L141.72-2.40Q141.37-3.21 141.37-4.12L141.37-4.12L141.37-15L143.17-15L143.17-4.01L143.17-4.01Q143.17-3.47 143.38-3.00L143.38-3.00L143.38-3.00Q143.58-2.52 143.94-2.17L143.94-2.17L143.94-2.17Q144.29-1.82 144.76-1.61L144.76-1.61L144.76-1.61Q145.24-1.41 145.78-1.41L145.78-1.41L146.98-1.41L146.98-1.41Q147.52-1.41 148.00-1.61L148.00-1.61L148.00-1.61Q148.48-1.82 148.83-2.17L148.83-2.17L148.83-2.17Q149.18-2.52 149.38-3.00L149.38-3.00L149.38-3.00Q149.59-3.47 149.59-4.01L149.59-4.01L149.59-15L151.39-15L151.39 0" fill="#ffffff" stroke="none" stroke-width="none" transform="translate(-97.68502807617188,7.8619675445556645)" style="fill: rgb(255, 255, 255);"></path></g><g class="path" style="transform: scale(0.91); transform-origin: 62.32px 0.216968px; animation: 1.78571s linear -0.294643s infinite normal forwards running breath-b401dda0-5f12-4408-aa6d-8dc90293239b;"><path d="M165.01 0L163.21 0L163.21-10.99L163.21-10.99Q163.21-11.53 163.01-12.00L163.01-12.00L163.01-12.00Q162.80-12.48 162.45-12.83L162.45-12.83L162.45-12.83Q162.10-13.18 161.62-13.39L161.62-13.39L161.62-13.39Q161.15-13.59 160.61-13.59L160.61-13.59L159.40-13.59L159.40-13.59Q158.86-13.59 158.39-13.39L158.39-13.39L158.39-13.39Q157.91-13.18 157.56-12.83L157.56-12.83L157.56-12.83Q157.21-12.48 157.00-12.00L157.00-12.00L157.00-12.00Q156.80-11.53 156.80-10.99L156.80-10.99L156.80 0L155.00 0L155.00-15L155.60-15L156.58-13.48L156.58-13.48Q157.19-14.31 158.12-14.80L158.12-14.80L158.12-14.80Q159.05-15.29 160.15-15.29L160.15-15.29L160.61-15.29L160.61-15.29Q161.51-15.29 162.32-14.95L162.32-14.95L162.32-14.95Q163.13-14.60 163.73-14.00L163.73-14.00L163.73-14.00Q164.33-13.40 164.67-12.60L164.67-12.60L164.67-12.60Q165.01-11.79 165.01-10.88L165.01-10.88L165.01 0" fill="#ffffff" stroke="none" stroke-width="none" transform="translate(-97.68502807617188,7.8619675445556645)" style="fill: rgb(248, 248, 248);"></path></g><g class="path" style="transform: scale(0.91); transform-origin: 72.435px -11.943px; animation: 1.78571s linear -0.220982s infinite normal forwards running breath-b401dda0-5f12-4408-aa6d-8dc90293239b;"><path d="M171.17-18.60L169.07-18.60L169.07-21.01L171.17-21.01L171.17-18.60" fill="#ffffff" stroke="none" stroke-width="none" transform="translate(-97.68502807617188,7.8619675445556645)" style="fill: rgb(240, 240, 240);"></path></g><g class="path" style="transform: scale(0.91); transform-origin: 72.435px 0.361968px; animation: 1.78571s linear -0.147321s infinite normal forwards running breath-b401dda0-5f12-4408-aa6d-8dc90293239b;"><path d="M171.02 0L169.22 0L169.22-15L171.02-15L171.02 0" fill="#ffffff" stroke="none" stroke-width="none" transform="translate(-97.68502807617188,7.8619675445556645)" style="fill: rgb(235, 235, 235);"></path></g><g class="path" style="transform: scale(0.91); transform-origin: 80.49px -1.58803px; animation: 1.78571s linear -0.0736607s infinite normal forwards running breath-b401dda0-5f12-4408-aa6d-8dc90293239b;"><path d="M182.33 0L180.69 0L180.69 0Q179.87 0 179.14-0.31L179.14-0.31L179.14-0.31Q178.42-0.62 177.88-1.16L177.88-1.16L177.88-1.16Q177.35-1.70 177.03-2.42L177.03-2.42L177.03-2.42Q176.72-3.13 176.72-3.96L176.72-3.96L176.72-13.29L174.02-13.29L174.02-15L176.72-15L176.72-18.60L178.52-18.90L178.52-15L182.33-15L182.33-13.29L178.52-13.29L178.52-3.87L178.52-3.87Q178.52-3.41 178.69-3.02L178.69-3.02L178.69-3.02Q178.86-2.64 179.15-2.34L179.15-2.34L179.15-2.34Q179.44-2.05 179.84-1.88L179.84-1.88L179.84-1.88Q180.23-1.71 180.69-1.71L180.69-1.71L182.33-1.71L182.33 0" fill="#ffffff" stroke="none" stroke-width="none" transform="translate(-97.68502807617188,7.8619675445556645)" style="fill: rgb(231, 231, 231);"></path></g><g class="path" style="transform: scale(0.91); transform-origin: 92.21px 3.36697px; animation: 1.78571s linear 0s infinite normal forwards running breath-b401dda0-5f12-4408-aa6d-8dc90293239b;"><path d="M195.66-15L188.07 6.01L186.33 6.01L188.99-1.29L184.13-15L185.93-15L189.84-3.63L189.90-2.86L189.96-3.63L193.86-15L195.66-15" fill="#ffffff" stroke="none" stroke-width="none" transform="translate(-97.68502807617188,7.8619675445556645)" style="fill: rgb(255, 255, 255);"></path></g></g>
</g>
</g>
<style id="breath-b401dda0-5f12-4408-aa6d-8dc90293239b" data-anikit="">@keyframes breath-b401dda0-5f12-4408-aa6d-8dc90293239b
{
  0% {
    animation-timing-function: cubic-bezier(0.9647,0.2413,-0.0705,0.7911);
    transform: scale(0.9099999999999999);
  }
  51% {
    animation-timing-function: cubic-bezier(0.9226,0.2631,-0.0308,0.7628);
    transform: scale(1.02994);
  }
  100% {
    transform: scale(0.9099999999999999);
  }
}</style></svg>